<svg width="19" height="18" viewBox="0 0 19 18" fill="none" xmlns="http://www.w3.org/2000/svg">
<path d="M9.29032 0C4.06452 0 0 4.06452 0 9.29032C0 15.3871 5.51613 18 6.3871 18C6.96774 18 6.96774 17.7097 6.96774 17.4194V15.9677C4.93548 16.5484 4.06452 15.3871 3.77419 14.5161C3.77419 14.5161 3.77419 14.2258 3.19355 13.6452C2.90323 13.3548 1.74194 12.7742 2.90323 12.7742C3.77419 12.7742 4.35484 13.9355 4.35484 13.9355C5.22581 15.0968 6.3871 14.8065 6.96774 14.5161C6.96774 13.9355 7.54839 13.3548 7.54839 13.3548C5.22581 13.0645 3.48387 12.1935 3.48387 9C3.48387 7.83871 3.77419 6.96774 4.35484 6.3871C4.35484 6.3871 3.77419 5.22581 4.35484 3.77419C4.35484 3.77419 5.80645 3.77419 6.96774 4.93548C7.83871 4.35484 10.7419 4.35484 11.6129 4.93548C12.7742 3.77419 14.2258 3.77419 14.2258 3.77419C14.8065 5.80645 14.2258 6.3871 14.2258 6.3871C14.8065 6.96774 15.0968 7.83871 15.0968 9C15.0968 12.1935 13.0645 13.0645 11.0323 13.3548C11.3226 13.6452 11.6129 14.2258 11.6129 15.0968V17.4194C11.6129 17.7097 11.6129 18 12.1935 18C13.0645 18 18.5806 15.3871 18.5806 9.29032C18.5806 4.06452 14.5161 0 9.29032 0Z" fill="#5F5F5F"/>
</svg>
